<svg xmlns="http://www.w3.org/2000/svg" width="2062.5635pt" height="375pt" viewBox="0 0 2062.5635 375"><path d="M173.505 55.154H57.722l40.284 72.288c6.523 9.817 14.617 13.906 29.368 13.906h27.73l-23.658-44.913h36.651c29.977 0 52.873 16.07 57.925 44.913h51.487c-7.181-49.02-52.45-86.194-104.004-86.194" style="fill:#0059a8;fill-opacity:1;fill-rule:nonzero;stroke:none;stroke-width:4.32579" transform="scale(1.25)"/><path d="M226.022 156.455c-5.052 28.827-27.948 44.914-57.925 44.914h-36.65l23.656-44.914h-27.729c-14.751 0-22.845 4.09-29.368 13.907L57.722 242.65h115.783c51.554 0 96.823-37.175 104.004-86.195h-51.487" style="fill:#00bdf0;fill-opacity:1;fill-rule:nonzero;stroke:none;stroke-width:4.32579" transform="scale(1.25)"/><path d="M315.444 82.562c-18.486 0-30.28 9.378-30.28 26.478l.017 3.92h62.116v106.692h45.032V112.96h62.25V82.562H315.446M786.212 82.562h-92.954c-21.426 0-38.814 17.37-38.814 38.813v59.463c0 21.443 17.37 38.814 38.814 38.814h92.937c21.443 0 38.83-17.37 38.83-38.814v-59.463c0-21.443-17.387-38.813-38.813-38.813zM709.04 112.96h61.406c5.272 0 9.564 4.292 9.564 9.581v57.148c0 5.272-4.292 9.564-9.564 9.564H709.04c-5.272 0-9.564-4.292-9.564-9.564v-57.148c0-5.289 4.292-9.58 9.564-9.58M597.094 175.972h5.136c10.038 0 18.47-3.11 24.367-9.007 6.353-6.353 9.716-15.715 9.716-27.053v-18.537c0-21.443-17.388-38.813-38.83-38.813h-92.6c-21.46 0-38.83 17.37-38.83 38.813v98.277h44.83V112.96h60.205c8.212 0 13.468 1.437 16.56 4.546 2.433 2.416 3.616 6.05 3.616 11.102v4.41c0 5.323-1.115 8.922-3.532 11.355-2.906 2.923-7.89 4.258-15.664 4.258h-40.96c-3.531 0-6.353.457-7.046 1.825-.659 1.301.946 3.752 3.6 6.303l65.478 62.893h50.912s-44.762-41.602-46.958-43.68M908.702 186.989h-8.026v27.171h8.026c8.94 0 14.465-4.697 14.465-13.822 0-8.347-6.405-13.35-14.465-13.35zm-.067 23.758h-4.072v-20.328h4.545c5.627 0 9.936 3.734 9.936 10.088 0 7.012-3.7 10.24-10.41 10.24M943.14 202.062c0-5.408-2.298-8.213-7.976-8.213-2.535 0-4.714.778-6.556 1.876l.203 3.109c1.487-1.25 3.7-2.028 5.762-2.028 3.666 0 4.917 1.74 4.917 5.188-1.453-.084-2.467-.084-3.904-.084-3.768 0-9.226 1.554-9.226 6.539 0 4.326 3.008 6.184 7.283 6.184 3.346 0 5.29-1.825 6.151-3.024h.084v2.551h3.43c-.067-.574-.169-1.622-.169-3.886zm-3.65 4.393c0 2.974-1.91 5.221-5.526 5.221-1.673 0-3.717-1.132-3.717-3.227 0-3.498 4.917-3.819 6.894-3.819.794 0 1.571.084 2.349.084v1.74M956.337 193.85c-5.61 0-9.294 4.156-9.294 10.036 0 6.472 3.227 10.747 10.274 10.747 3.26 0 4.866-.777 6.269-1.267v-3.667c-.879.727-3.7 1.977-6.117 1.977-3.464 0-6.54-2.686-6.54-6.624h14.177c0-6.387-2.145-11.203-8.77-11.203zm-5.408 8.482c.27-2.552 1.74-5.526 5.34-5.526 3.16 0 4.934 2.501 4.934 5.526H950.93M983.204 197.263h-.068c-1.098-2.13-3.041-3.414-6.556-3.414-5.982 0-8.871 5.458-8.871 10.561 0 5.12 2.805 9.75 8.5 9.75 2.517 0 5.102-1.014 6.64-3.058h.084v1.943c0 4.207-2.298 6.81-6.15 6.81-2.687 0-4.36-.49-7.165-1.791l-.371 3.413c3.176 1.064 5.018 1.335 7.097 1.335 7.147 0 10.256-3.447 10.256-9.497v-18.993h-3.396zm-6.05 13.957c-3.447 0-5.542-3.278-5.542-7.012 0-3.397 1.825-7.402 5.543-7.402 3.869 0 5.778 3.532 5.778 7.672 0 3.7-2.365 6.742-5.778 6.742M1005.745 203.515c0 4.815-1.859 8.161-6.032 8.161-3.177-.186-4.208-2.45-4.208-7.08v-10.274h-3.65V206.1c0 5.357 2.298 8.533 7.418 8.533 2.789 0 5.441-1.368 6.506-3.616h.084v3.143h3.548v-19.838h-3.666v9.193M1039.861 209.58l-8.533-22.591h-6.42v27.171h3.902v-23.504h.067l9.007 23.504h3.802l9.006-23.504h.051v23.504h3.903V186.99h-6.42l-8.365 22.592M1068.283 193.85c-5.61 0-9.293 4.156-9.293 10.036 0 6.472 3.21 10.747 10.273 10.747 3.262 0 4.867-.777 6.27-1.267v-3.667c-.896.727-3.718 1.977-6.118 1.977-3.464 0-6.556-2.686-6.556-6.624h14.177c0-6.387-2.146-11.203-8.753-11.203zm-5.424 8.482c.287-2.552 1.758-5.526 5.34-5.526 3.16 0 4.934 2.501 4.934 5.526h-10.274M1086.262 208.145v-10.882h5.256v-2.94h-5.256v-5.763l-3.65 1.15v4.612h-4.477v2.94h4.477v11.626c0 3.954 2.332 5.745 6.117 5.745 1.166 0 2.282-.304 3.093-.54v-3.11c-.524.338-1.352.693-2.484.693-1.656 0-3.076-1.25-3.076-3.531M1098.665 197.398h-.084v-3.076h-3.43v19.838h3.65v-9.023c0-4.985 2.146-8.094 5.424-8.094.625 0 1.352.067 2.01.355v-3.278c-.777-.153-1.317-.27-2.399-.27-2.095 0-4.224 1.47-5.17 3.548M1118.114 193.85c-6.066 0-10.105 4.359-10.105 10.391 0 5.678 4.107 10.392 10.105 10.392 5.965 0 10.088-4.714 10.088-10.392 0-6.032-4.038-10.392-10.088-10.392zm0 17.826c-4.309 0-6.235-3.886-6.235-7.435 0-3.785 2.298-7.435 6.235-7.435 3.904 0 6.185 3.65 6.185 7.435 0 3.549-1.893 7.435-6.185 7.435M1142.447 193.85c-3.498 0-5.762 1.774-6.725 3.26h-.084v-2.788h-3.498v28.034h3.666v-10.9h.067c1.133 1.809 3.127 3.177 6.624 3.177 5.999 0 8.517-5.306 8.517-10.747 0-5.34-2.805-10.037-8.567-10.037zm-.811 17.826c-4.123 0-5.83-4.089-5.83-7.4 0-3.685 1.91-7.47 5.863-7.47 3.971 0 5.526 3.785 5.458 7.35.068 3.127-1.571 7.52-5.491 7.52M1163.755 193.85c-6.083 0-10.122 4.359-10.122 10.391 0 5.678 4.123 10.392 10.122 10.392 5.948 0 10.07-4.714 10.07-10.392 0-6.032-4.038-10.392-10.07-10.392zm0 17.826c-4.326 0-6.219-3.886-6.219-7.435 0-3.785 2.282-7.435 6.219-7.435 3.903 0 6.184 3.65 6.184 7.435 0 3.549-1.91 7.435-6.184 7.435M1178.236 214.16h3.65v-29.199h-3.65v29.2M1188.087 214.16h3.65v-19.838h-3.65v19.838M1187.85 189.878h4.14v-4.123h-4.14v4.123M1202.771 208.145v-10.882h5.255v-2.94h-5.255v-5.763l-3.667 1.15v4.612h-4.477v2.94h4.477v11.626c0 3.954 2.332 5.745 6.117 5.745 1.166 0 2.298-.304 3.11-.54v-3.11c-.541.338-1.37.693-2.501.693-1.673 0-3.059-1.25-3.059-3.531M1227.104 202.062c0-5.408-2.298-8.213-7.993-8.213-2.518 0-4.697.778-6.54 1.876l.187 3.109c1.487-1.25 3.717-2.028 5.779-2.028 3.65 0 4.9 1.74 4.9 5.188-1.453-.084-2.45-.084-3.886-.084-3.785 0-9.226 1.554-9.226 6.539 0 4.326 2.99 6.184 7.266 6.184 3.362 0 5.289-1.825 6.15-3.024h.084v2.551h3.43c-.084-.574-.151-1.622-.151-3.886zm-3.667 4.393c0 2.974-1.91 5.221-5.525 5.221-1.673 0-3.701-1.132-3.701-3.227 0-3.498 4.9-3.819 6.894-3.819.777 0 1.555.084 2.332.084v1.74M1242.447 193.85c-2.771 0-5.424 1.368-6.523 3.615h-.068v-3.143h-3.548v19.838h3.667v-9.175c0-4.833 1.875-8.179 6.032-8.179 3.194.203 4.208 2.45 4.208 7.08v10.274h3.666v-11.794c0-5.323-2.298-8.517-7.435-8.517M1283.085 186.989h-20.784v3.43h8.45v23.741h3.903v-23.74h8.431v-3.431M1286.28 197.398h-.069v-3.076h-3.447v19.838h3.684v-9.023c0-4.985 2.129-8.094 5.407-8.094.608 0 1.352.067 2.028.355v-3.278c-.795-.153-1.335-.27-2.417-.27-2.112 0-4.207 1.47-5.187 3.548M1312.42 202.062c0-5.408-2.315-8.213-7.993-8.213-2.534 0-4.714.778-6.54 1.876l.187 3.109c1.487-1.25 3.7-2.028 5.762-2.028 3.667 0 4.917 1.74 4.917 5.188-1.436-.084-2.45-.084-3.886-.084-3.785 0-9.243 1.554-9.243 6.539 0 4.326 2.99 6.184 7.283 6.184 3.345 0 5.305-1.825 6.133-3.024h.102v2.551h3.43c-.084-.574-.152-1.622-.152-3.886zm-3.667 4.393c0 2.974-1.91 5.221-5.526 5.221-1.69 0-3.717-1.132-3.717-3.227 0-3.498 4.917-3.819 6.894-3.819.777 0 1.555.084 2.349.084v1.74M1327.746 193.85c-2.754 0-5.424 1.368-6.506 3.615h-.068v-3.143h-3.548v19.838h3.65v-9.175c0-4.833 1.892-8.179 6.05-8.179 3.193.203 4.207 2.45 4.207 7.08v10.274h3.65v-11.794c0-5.323-2.299-8.517-7.436-8.517M1342.531 199.223c0-1.64 1.656-2.417 3.515-2.417.862 0 3.042.507 3.853 1.014l.32-3.193c-1.436-.423-2.855-.778-4.562-.778-3.92 0-7.012 1.977-7.012 6.117 0 5.56 8.617 5.255 8.617 8.871 0 2.146-2.078 2.84-3.75 2.84-1.048 0-3.11-.457-4.53-1.403l-.22 3.278c1.674.895 3.583 1.081 5.459 1.081 3.548 0 6.928-1.943 6.928-6.184 0-6.354-8.618-5.17-8.618-9.226M1355.086 214.16h3.667v-19.838h-3.667v19.838M1354.85 189.878h4.123v-4.123h-4.123v4.123M1369.753 208.145v-10.882h5.255v-2.94h-5.255v-5.763l-3.65 1.15v4.612h-4.477v2.94h4.478v11.626c0 3.954 2.331 5.745 6.116 5.745 1.166 0 2.282-.304 3.11-.54v-3.11c-.541.338-1.37.693-2.501.693-1.673 0-3.076-1.25-3.076-3.531M1401.808 211.22c-5.66 0-10.24-4.258-10.24-10.629 0-6.117 4.157-10.628 10.443-10.628 1.96 0 3.886.49 5.593 1.504l.32-3.768c-1.96-.862-4.02-1.166-6.116-1.166-8.314 0-14.38 5.559-14.38 13.923 0 8.669 5.728 14.177 14.346 14.177 1.589 0 4.123-.1 6.185-.963l-.237-3.785c-1.369.828-3.97 1.335-5.914 1.335M1420.108 193.85c-6.083 0-10.138 4.359-10.138 10.391 0 5.678 4.14 10.392 10.138 10.392 5.948 0 10.071-4.714 10.071-10.392 0-6.032-4.038-10.392-10.07-10.392zm0 17.826c-4.326 0-6.235-3.886-6.235-7.435 0-3.785 2.298-7.435 6.235-7.435 3.886 0 6.185 3.65 6.185 7.435 0 3.549-1.91 7.435-6.185 7.435M1437.614 197.398h-.084v-3.076h-3.413v19.838h3.65v-9.023c0-4.985 2.146-8.094 5.424-8.094.625 0 1.368.067 2.027.355v-3.278c-.794-.153-1.318-.27-2.416-.27-2.112 0-4.19 1.47-5.188 3.548M1458.6 193.85c-3.497 0-5.761 1.774-6.724 3.26h-.084v-2.788h-3.498v28.034h3.65v-10.9h.1c1.116 1.809 3.11 3.177 6.608 3.177 5.998 0 8.516-5.306 8.516-10.747 0-5.34-2.788-10.037-8.567-10.037zm-.81 17.826c-4.123 0-5.847-4.089-5.847-7.4 0-3.685 1.927-7.47 5.897-7.47 3.971 0 5.526 3.785 5.441 7.35.084 3.127-1.554 7.52-5.491 7.52M1479.909 193.85c-6.083 0-10.122 4.359-10.122 10.391 0 5.678 4.123 10.392 10.122 10.392 5.948 0 10.07-4.714 10.07-10.392 0-6.032-4.038-10.392-10.07-10.392zm0 17.826c-4.326 0-6.235-3.886-6.235-7.435 0-3.785 2.298-7.435 6.235-7.435 3.886 0 6.184 3.65 6.184 7.435 0 3.549-1.892 7.435-6.184 7.435M1497.432 197.398h-.084v-3.076h-3.414v19.838h3.65v-9.023c0-4.985 2.146-8.094 5.424-8.094.609 0 1.352.067 2.011.355v-3.278c-.777-.153-1.318-.27-2.416-.27-2.113 0-4.208 1.47-5.17 3.548M1523.555 202.062c0-5.408-2.298-8.213-7.975-8.213-2.535 0-4.715.778-6.557 1.876l.203 3.109c1.47-1.25 3.684-2.028 5.762-2.028 3.667 0 4.9 1.74 4.9 5.188-1.436-.084-2.45-.084-3.886-.084-3.785 0-9.226 1.554-9.226 6.539 0 4.326 2.99 6.184 7.283 6.184 3.329 0 5.289-1.825 6.15-3.024h.069v2.551h3.43c-.068-.574-.152-1.622-.152-3.886zm-3.667 4.393c0 2.974-1.909 5.221-5.525 5.221-1.673 0-3.7-1.132-3.7-3.227 0-3.498 4.917-3.819 6.894-3.819.777 0 1.554.084 2.332.084v1.74M1534.066 208.145v-10.882h5.255v-2.94h-5.255v-5.763l-3.65 1.15v4.612h-4.478v2.94h4.478v11.626c0 3.954 2.315 5.745 6.1 5.745 1.182 0 2.298-.304 3.126-.54v-3.11a4.695 4.695 0 0 1-2.501.693c-1.673 0-3.075-1.25-3.075-3.531M1543.173 189.878h4.123v-4.123h-4.123v4.123M1543.41 214.16h3.667v-19.838h-3.667v19.838M1561.592 193.85c-6.083 0-10.122 4.359-10.122 10.391 0 5.678 4.14 10.392 10.122 10.392 5.965 0 10.104-4.714 10.104-10.392 0-6.032-4.072-10.392-10.104-10.392zm0 17.826c-4.326 0-6.236-3.886-6.236-7.435 0-3.785 2.316-7.435 6.236-7.435 3.903 0 6.201 3.65 6.201 7.435 0 3.549-1.91 7.435-6.201 7.435M1585.722 193.85c-2.738 0-5.408 1.368-6.506 3.615h-.068v-3.143h-3.548v19.838h3.666v-9.175c0-4.833 1.86-8.179 6.05-8.179 3.193.203 4.19 2.45 4.19 7.08v10.274h3.667v-11.794c0-5.323-2.298-8.517-7.452-8.517M1217.32 141.551c-18.638-6.928-22.845-19.635-22.845-33.187V92.396h-14.144v16.509c-.118 13.35-4.444 25.803-22.845 32.646l6.607 8.077c7.13-1.977 16.796-7.739 23.318-16.373 6.506 8.634 16.188 14.396 23.302 16.373l6.607-8.077M1033.914 174.231v-33.778h34.978V130.06h-13.704c1.605-4.377 2.822-11.626 2.957-17.303h.035V92.362h-62.302v10.342h48.158v7.705c-.017 7.03-.506 14.346-1.977 19.652h-57.316v10.392h35.029v33.778h14.143M1425.55 157.046h-34.168v-18.688h23.792v-10.376h-49.121v-25.21h49.121V92.395h-65.478v2.416s2.214 1.302 2.214 6.76v30.922a5.867 5.867 0 0 0 5.863 5.864h19.483v18.688h-35.823v10.392h84.116v-10.392M1156.877 157.046h-34.183v-18.688h23.791v-10.376h-49.121v-25.21h49.121V92.395h-65.495v2.416s2.23 1.302 2.23 6.76v30.922c0 3.244 2.637 5.864 5.881 5.864h19.45v18.688h-35.807v10.392h84.133v-10.392M1278.067 118.435c5.644 6.573 13.957 10.916 21.73 12.91l6.573-8.161c-12.42-3.735-18.52-9.04-20.462-18.622h16.154V94.187h-16.915v-7.35h-14.143v7.35h-17.185v10.375h16.424c-1.96 9.581-8.077 14.887-20.48 18.622l6.574 8.161c7.773-1.994 16.086-6.337 21.73-12.91M1471.477 137.783c-13.417 0-24.265 8.669-24.265 19.348 0 10.68 10.848 19.348 24.265 19.348 13.383 0 24.265-8.669 24.265-19.348 0-10.68-10.882-19.348-24.265-19.348zm0 28.32c-5.526 0-9.987-4.021-9.987-8.972 0-4.968 4.461-8.99 9.987-8.99 5.508 0 9.953 4.022 9.953 8.99 0 4.95-4.445 8.972-9.953 8.972M1513.518 125.33h-14.836c1.453-3.988 3.38-9.683 3.413-16.678V92.396h-61.828v10.392h47.702v5.762c-.035 7.046-1.234 12.47-2.383 16.78h-11.608v-15.107h-16.357v2.416s2.23 1.335 2.23 6.76v5.93h-30.5v10.393h84.167v-10.393M1593.055 114.414V88.695h-16.374v2.4s2.23 1.301 2.23 6.759v76.377h14.144v-49.425h12.217v-10.392h-12.217M1550.76 108.364V92.396h-14.11v16.458c-.118 13.383-4.46 25.837-22.862 32.697l6.607 8.077c7.114-1.977 16.813-7.739 23.32-16.374 6.505 8.635 16.187 14.397 23.3 16.374l6.608-8.077c-18.638-6.928-22.863-19.635-22.863-33.187M943.038 174.231h13.282v-49.746h5.61v49.746h13.315V88.695h-15.529v2.4s2.214 1.301 2.214 6.759v16.255h-5.61V88.695h-15.478v2.4s1.993 1.217 2.196 6.032v39.22c-6.759 2.095-11.135 2.737-19.533 2.737h-8.686v-34.133h20.058V94.576h-36.448v2.416s2.247 1.301 2.247 6.76v39.86a5.867 5.867 0 0 0 5.863 5.864h17v-.017c8.38 0 12.74-.676 19.5-2.738v27.51" style="fill:#0059a8;fill-opacity:1;fill-rule:nonzero;stroke:none;stroke-width:4.32579" transform="scale(1.25)"/><path d="M1314.059 97.854v9.48h-13.89v10.375h13.89v14.515h14.126V88.695h-16.34v2.4s2.214 1.318 2.214 6.759M1328.185 159.547v-24.789h-63.839v10.088h49.713v4.613h-49.713v2.4s2.23 1.352 2.23 6.793v9.682c0 3.261 2.637 5.897 5.881 5.897h55.728v-10.088h-47.465v-4.596h47.465M1223.623 97.854v76.377h14.143V88.695h-16.374v2.4s2.23 1.301 2.23 6.759" style="fill:#0059a8;fill-opacity:1;fill-rule:nonzero;stroke:none;stroke-width:4.32579" transform="scale(1.25)"/></svg>